<svg xmlns="http://www.w3.org/2000/svg" fill="none" aria-hidden="true" viewBox="0 0 24 24" role="img"><path vector-effect="non-scaling-stroke" stroke="var(--icon-color, #001e00)" stroke-linecap="round" stroke-linejoin="round" stroke-width="1.5" d="M16.55 10.64L18.08 12l-1.53 1.36m-5.1-2.72L9.92 12l1.53 1.36m3.61-4.12l-2.12 5.52"></path><path vector-effect="non-scaling-stroke" stroke="var(--icon-color, #001e00)" stroke-linecap="round" stroke-linejoin="round" stroke-width="1.5" d="M20 6.75H8a1 1 0 00-1 1v8.5a1 1 0 001 1h12a1 1 0 001-1v-8.5a1 1 0 00-1-1z"></path><path vector-effect="non-scaling-stroke" stroke="var(--icon-color, #001e00)" stroke-linecap="round" stroke-linejoin="round" stroke-width="1.5" d="M14 4.75V4a1 1 0 00-1-1H4a1 1 0 00-1 1v16a1 1 0 001 1h9a1 1 0 001-1v-.75"></path></svg>