<svg xmlns="http://www.w3.org/2000/svg" fill="none" aria-hidden="true" viewBox="0 0 24 24" role="img"><path fill="var(--icon-color, #001e00)" fill-rule="evenodd" d="M8.84 6.88c.12.08.26.13.41.13a.75.75 0 00.75-.75c0-.14-.04-.29-.13-.41a.719.719 0 00-.34-.28.795.795 0 00-.43-.04c-.14.03-.28.1-.38.2-.1.1-.17.24-.2.38s-.01.29.04.43.15.25.28.34zm-3 4c.12.08.26.13.41.13a.75.75 0 00.75-.75c0-.14-.04-.29-.13-.41a.719.719 0 00-.34-.28.71.71 0 00-.43-.04c-.14.03-.28.1-.38.2-.1.1-.17.24-.2.38s-.01.29.04.43.15.25.28.34zM14.25 7c-.15 0-.29-.04-.41-.13a.719.719 0 01-.28-.34.71.71 0 01-.04-.43c.03-.14.1-.28.2-.38.1-.1.24-.17.38-.2s.29-.01.43.04.25.15.34.28c.08.13.13.27.13.41a.75.75 0 01-.75.75z" clip-rule="evenodd"></path><path fill="var(--icon-color, #001e00)" d="M17.25 11a.75.75 0 100-1.5.75.75 0 000 1.5z"></path><path fill="var(--icon-color, #001e00)" d="M5.39 5.39l.53.53.002-.001-.532-.529zm0 12.72l.53-.53-.001-.002-.529.532zm7.73 1.75l-.685-.305-.01.022.695.283zm-.26-1.62l.568-.49-.012-.013-.556.503zm-.26-1.61l-.681-.314a.87.87 0 00-.01.022l.691.292zm.56-.64l.386.643a.727.727 0 00.03-.019l-.416-.624zm.82-.23l-.026.75a.74.74 0 00.026 0v-.75zm5.31-1.46l.527.533.003-.003-.53-.53zm1.46-3.54h.75-.75zM8.84 6.88l-.427.616.01.008.417-.624zm1.03-1.03l-.639.393.018.03.02.027.6-.45zm-.34-.28l.295-.69-.02-.009-.023-.008-.252.707zm-3.69 5.31l-.427.617.01.007.417-.624zm1.03-1.03l-.639.393.018.03.021.027.6-.45zm6.97-2.98l.45-.6-.027-.02-.03-.019-.393.639zm1.03-1.03l.639-.393-.01-.017-.012-.017-.617.427zM11.75 2a9.717 9.717 0 00-6.892 2.861L5.922 5.92A8.217 8.217 0 0111.75 3.5V2zM4.86 4.86A9.751 9.751 0 002 11.75h1.5c0-2.18.87-4.28 2.42-5.83L4.86 4.86zM2 11.75a9.734 9.734 0 002.861 6.892l1.058-1.064A8.234 8.234 0 013.5 11.75H2zm2.86 6.89a9.752 9.752 0 006.89 2.86V20c-2.18 0-4.28-.87-5.83-2.42l-1.06 1.06zm6.89 2.86c.424 0 .861-.116 1.236-.366l-.832-1.248a.735.735 0 01-.404.114v1.5zm1.236-.366a2.2 2.2 0 00.829-.991l-1.39-.566a.705.705 0 01-.271.309l.832 1.248zm.82-.97c.177-.398.24-.838.163-1.281l-1.478.254a.713.713 0 01-.056.418l1.37.61zm.163-1.281a2.334 2.334 0 00-.541-1.133l-1.136.98a.835.835 0 01.199.407l1.478-.254zm-.553-1.146a.792.792 0 01-.187-.394l-1.478.254c.073.425.264.827.553 1.146l1.112-1.006zm-.187-.394a.755.755 0 01.062-.42l-1.382-.585a2.251 2.251 0 00-.158 1.26l1.478-.255zm.052-.399a.7.7 0 01.265-.31l-.772-1.287a2.198 2.198 0 00-.855.969l1.362.628zm.295-.33c.106-.07.24-.11.378-.104l.052-1.5a2.148 2.148 0 00-1.262.356l.832 1.248zm.404-.104h1.77v-1.5h-1.77v1.5zm1.77 0c1.53 0 2.989-.61 4.067-1.677l-1.055-1.066a4.286 4.286 0 01-3.012 1.243v1.5zm4.07-1.68a5.743 5.743 0 001.68-4.07H20a4.244 4.244 0 01-1.24 3.01l1.06 1.06zm1.68-4.07C21.5 5.837 17.08 2 11.75 2v1.5c4.67 0 8.25 3.323 8.25 7.26h1.5zM8.424 7.504c.223.149.505.256.826.256v-1.5c.01 0 .015.001.017.002.001 0-.003 0-.011-.006l-.832 1.248zm.826.256a1.5 1.5 0 001.06-.44L9.25 6.26v1.5zm1.06-.44a1.5 1.5 0 00.44-1.06h-1.5l1.06 1.06zm.44-1.06c0-.273-.076-.589-.28-.86l-1.2.9a.117.117 0 01-.019-.035L9.25 6.26h1.5zm-.241-.803a1.467 1.467 0 00-.684-.577l-.59 1.38c.016.006.02.01.017.008a.115.115 0 01-.021-.025l1.278-.786zm-.727-.594a1.543 1.543 0 00-.84-.067l.315 1.467c-.017.004-.024.002-.02.003.006 0 .02.003.04.01l.505-1.413zm-.84-.067a1.527 1.527 0 00-.752.403L9.25 6.26a.094.094 0 01-.01.01c-.002 0-.002 0 0 0a.072.072 0 01.017-.007l-.314-1.467zM8.19 5.2a1.527 1.527 0 00-.403.754l1.466.314a.063.063 0 01.006-.017c.001-.002.002-.002 0 0a.092.092 0 01-.009.01L8.19 5.2zm-.403.754a1.54 1.54 0 00.067.839l1.412-.505a.184.184 0 01-.01-.04c0-.005.001.003-.003.02l-1.466-.314zm.067.839c.118.33.344.555.559.704l.854-1.233c-.022-.015-.027-.022-.024-.018a.165.165 0 01.023.043l-1.412.504zm-2.43 4.712c.223.149.505.256.826.256v-1.5c.01 0 .015.002.017.002.001 0-.003 0-.011-.006l-.832 1.248zm.826.256a1.5 1.5 0 001.06-.44l-1.06-1.06v1.5zm1.06-.44a1.5 1.5 0 00.44-1.06h-1.5l1.06 1.06zm.44-1.06c0-.273-.076-.588-.28-.86l-1.2.9a.118.118 0 01-.019-.035l-.001-.005h1.5zm-.241-.803a1.467 1.467 0 00-.684-.576l-.59 1.378c.016.008.02.012.017.01a.113.113 0 01-.021-.025l1.278-.787zm-.684-.576a1.46 1.46 0 00-.882-.084l.314 1.466h-.006a.053.053 0 01-.016-.004l.59-1.378zm-.882-.084a1.527 1.527 0 00-.753.403l1.06 1.06a.09.09 0 01-.01.01c-.002.001-.002 0 0 0a.07.07 0 01.017-.007l-.314-1.466zM5.19 9.2a1.527 1.527 0 00-.403.753l1.466.314a.062.062 0 01.006-.016c.001-.002.002-.003 0-.002 0 .002-.003.006-.009.011L5.19 9.2zm-.403.753c-.067.312-.016.607.067.84l1.412-.505a.184.184 0 01-.01-.04c0-.005.001.002-.003.02l-1.466-.315zm.067.84c.118.33.344.555.559.704l.854-1.234c-.022-.015-.027-.022-.024-.018a.166.166 0 01.023.043l-1.412.504zM14.25 6.25c-.008 0-.005-.001.005.002.012.004.025.01.035.018l-.9 1.2c.268.2.572.28.86.28v-1.5zm-.017-.019a.125.125 0 01.025.021c.003.004-.001 0-.008-.017l-1.38.59c.107.247.286.505.577.684l.786-1.278zm.017.004a.053.053 0 01.004.016v.006l-1.467-.314c-.06.28-.042.59.084.882l1.379-.59zm.004.022a.075.075 0 01.006-.016v-.002a.095.095 0 01-.01.011l-1.06-1.06a1.527 1.527 0 00-.403.753l1.467.314zm-.003-.007a.089.089 0 01-.011.01c-.002 0-.001 0 0 0a.074.074 0 01.017-.007l-.314-1.466a1.527 1.527 0 00-.753.403l1.06 1.06zm.006.003c-.017.004-.024.002-.019.003.005 0 .02.003.04.01l.505-1.412a1.543 1.543 0 00-.84-.067l.314 1.466zm.021.013a.166.166 0 01-.043-.023c-.004-.003.003.002.019.024l1.233-.854a1.455 1.455 0 00-.704-.56l-.505 1.413zm-.046-.033a.179.179 0 01.02.041c.002.005-.002-.004-.002-.024h1.5a1.54 1.54 0 00-.241-.803l-1.277.786zm.018.017l1.06 1.06a1.5 1.5 0 00.44-1.06h-1.5zm0 0v1.5a1.5 1.5 0 001.06-.44l-1.06-1.06zm3 4v1.5a1.5 1.5 0 001.5-1.5h-1.5zm0 0h-1.5a1.5 1.5 0 001.5 1.5v-1.5zm0 0v-1.5a1.5 1.5 0 00-1.5 1.5h1.5zm0 0h1.5a1.5 1.5 0 00-1.5-1.5v1.5z"></path></svg>